HIERARCHY
ROOT Hips
{
	OFFSET -0.001795 -0.223333 0.028219
	CHANNELS 6 Xposition Yposition Zposition Zrotation Yrotation Xrotation 
	JOINT LeftUpLeg
	{
		OFFSET 0.069520 -0.091406 -0.006815
		CHANNELS 3 Zrotation Yrotation Xrotation
		JOINT LeftLeg
		{
			OFFSET 0.034277 -0.375199 -0.004496
			CHANNELS 3 Zrotation Yrotation Xrotation
			JOINT LeftFoot
			{
				OFFSET -0.013596 -0.397961 -0.043693
				CHANNELS 3 Zrotation Yrotation Xrotation
				JOINT LeftToe
				{
					OFFSET 0.026358 -0.055791 0.119288
					CHANNELS 3 Zrotation Yrotation Xrotation
					End Site
					{
						OFFSET 0.000000 0.000000 0.000000
					}
				}
			}
		}
	}
	JOINT RightUpLeg
	{
		OFFSET -0.067670 -0.090522 -0.004320
		CHANNELS 3 Zrotation Yrotation Xrotation
		JOINT RightLeg
		{
			OFFSET -0.038290 -0.382569 -0.008850
			CHANNELS 3 Zrotation Yrotation Xrotation
			JOINT RightFoot
			{
				OFFSET 0.015774 -0.398415 -0.042312
				CHANNELS 3 Zrotation Yrotation Xrotation
				JOINT RightToe
				{
					OFFSET -0.025372 -0.048144 0.123348
					CHANNELS 3 Zrotation Yrotation Xrotation
					End Site
					{
						OFFSET 0.000000 0.000000 0.000000
					}
				}
			}
		}
	}
	JOINT Spine
	{
		OFFSET -0.002533 0.108963 -0.026696
		CHANNELS 3 Zrotation Yrotation Xrotation
		JOINT Spine1
		{
			OFFSET 0.005487 0.135180 0.001092
			CHANNELS 3 Zrotation Yrotation Xrotation
			JOINT Spine2
			{
				OFFSET 0.001457 0.052922 0.025425
				CHANNELS 3 Zrotation Yrotation Xrotation
				JOINT Neck
				{
					OFFSET -0.002778 0.213870 -0.042857
					CHANNELS 3 Zrotation Yrotation Xrotation
					JOINT Head
					{
						OFFSET 0.005152 0.064970 0.051349
						CHANNELS 3 Zrotation Yrotation Xrotation
						End Site
						{
							OFFSET 0.000000 0.000000 0.000000
						}
					}
				}
				JOINT LeftShoulder
				{
					OFFSET 0.078845 0.121749 -0.034090
					CHANNELS 3 Zrotation Yrotation Xrotation
					JOINT LeftArm
					{
						OFFSET 0.090977 0.030469 -0.008868
						CHANNELS 3 Zrotation Yrotation Xrotation
						JOINT LeftForeArm
						{
							OFFSET 0.259612 -0.012772 -0.027456
							CHANNELS 3 Zrotation Yrotation Xrotation
							JOINT LeftHand
							{
								OFFSET 0.249234 0.008986 -0.001171
								CHANNELS 3 Zrotation Yrotation Xrotation
								End Site
								{
									OFFSET 0.000000 0.000000 0.000000
								}
							}
						}
					}
				}
				JOINT RightShoulder
				{
					OFFSET -0.081759 0.118833 -0.038615
					CHANNELS 3 Zrotation Yrotation Xrotation
					JOINT RightArm
					{
						OFFSET -0.096012 0.032551 -0.009143
						CHANNELS 3 Zrotation Yrotation Xrotation
						JOINT RightForeArm
						{
							OFFSET -0.253742 -0.013329 -0.021401
							CHANNELS 3 Zrotation Yrotation Xrotation
							JOINT RightHand
							{
								OFFSET -0.255298 0.007772 -0.005559
								CHANNELS 3 Zrotation Yrotation Xrotation
								End Site
								{
									OFFSET 0.000000 0.000000 0.000000
								}
							}
						}
					}
				}
			}
		}
	}
}
MOTION
Frames: 9
Frame Time: 0.050000
0.000000 0.928894 0.000000 -0.645009 -3.576462 2.089944 11.985805 0.177417 -14.871926 -8.504959 1.480307 9.951987 8.562194 17.882237 8.764398 0.000000 0.000000 0.000000 -3.232312 0.210340 -1.355041 0.340465 0.293567 8.012533 -2.078549 -4.259648 -2.088582 0.000000 0.000000 0.000000 6.848277 -0.503503 4.085298 -3.134173 1.449030 -2.947183 -2.958838 2.626541 8.302555 5.587305 -1.385749 -22.321564 0.000000 0.000000 0.000000 -22.449841 -18.540533 8.388183 -51.973131 -19.977352 2.221297 -17.105533 -44.562921 8.882454 0.000000 0.000000 0.000000 18.220899 5.809263 1.821241 54.868150 11.856396 -0.366979 47.425795 57.023004 29.436121 0.000000 0.000000 0.000000 
0.021842 0.928544 0.009690 -1.524363 -2.857344 2.770839 11.319942 0.024057 -13.864347 -5.424139 0.711602 5.037467 7.602667 16.441878 10.687400 0.000000 0.000000 0.000000 -3.324602 0.194971 -1.082737 0.042431 0.314282 7.505709 -2.523012 -6.144987 -0.478959 0.000000 0.000000 0.000000 7.079102 -0.510927 3.836880 -2.422370 1.128947 -3.823194 -3.272045 1.559598 9.130499 7.124164 -1.968764 -24.920391 0.000000 0.000000 0.000000 -23.798157 -16.481369 7.545249 -50.243125 -20.946236 2.375253 -21.827834 -45.238872 11.198202 0.000000 0.000000 0.000000 17.864049 6.173260 1.877404 56.055537 10.660232 -0.945039 52.788823 56.418762 32.261683 0.000000 0.000000 0.000000 
0.045294 0.926677 0.018533 -1.792716 -2.601241 2.189244 9.852829 -0.138308 -13.891293 -4.914276 0.633041 5.595840 7.329059 16.082306 11.679685 0.000000 0.000000 0.000000 -4.130831 0.169104 -0.442575 -0.326884 0.447189 9.023403 -2.791754 -6.834429 -0.447967 0.000000 0.000000 0.000000 7.453810 -0.449063 3.215666 -1.854405 0.884629 -2.537483 -4.528133 2.259608 9.634054 8.633564 -2.821674 -23.881156 0.000000 0.000000 0.000000 -20.854314 -18.220612 7.967457 -50.912690 -21.724326 2.790498 -20.968141 -44.716608 10.531983 0.000000 0.000000 0.000000 19.398808 6.579438 2.392786 55.123910 11.218402 -0.835114 50.776709 56.166028 31.243724 0.000000 0.000000 0.000000 
0.069176 0.924818 0.027142 -2.020511 -2.633501 2.333342 9.073967 -0.228804 -13.915181 -5.939416 0.829129 6.673759 7.744699 16.699922 10.947263 0.000000 0.000000 0.000000 -4.949358 0.273351 -1.810375 -0.692192 0.623511 11.110623 -3.698604 -8.880981 -1.094746 0.000000 0.000000 0.000000 7.163418 -0.380585 2.632628 -2.152632 1.020636 -1.963105 -4.184148 2.678654 9.787048 8.866880 -2.710572 -25.099369 0.000000 0.000000 0.000000 -21.052564 -18.704369 8.157850 -51.106209 -22.443861 3.146606 -20.569518 -45.212453 10.451388 0.000000 0.000000 0.000000 19.574462 6.918604 2.682106 55.268849 10.459947 -1.208616 53.157961 56.083671 32.815574 0.000000 0.000000 0.000000 
0.091512 0.926091 0.035094 -2.064830 -1.787126 2.455668 7.419668 -0.440215 -13.768767 -5.527363 0.743039 6.935251 7.996637 17.147020 10.552784 0.000000 0.000000 0.000000 -5.906216 0.318283 -2.524521 -0.693353 0.691825 12.672924 -4.002241 -10.120993 0.398729 0.000000 0.000000 0.000000 7.155710 -0.357537 2.347443 -2.013890 0.960947 -1.034686 -4.500468 2.410417 9.019324 9.419591 -3.022794 -24.579074 0.000000 0.000000 0.000000 -19.860172 -19.234380 8.232413 -51.777330 -22.507930 3.332582 -19.140385 -46.079637 9.977623 0.000000 0.000000 0.000000 20.881443 7.391392 3.021778 55.145749 9.599417 -1.553185 53.339873 55.652643 32.644430 0.000000 0.000000 0.000000 
0.110294 0.927947 0.042881 -2.137924 -1.049811 2.506881 6.417449 -0.551785 -13.232947 -5.693046 0.753268 6.828399 7.432487 16.221738 9.430018 0.000000 0.000000 0.000000 -6.596466 0.346680 -3.221146 0.186994 0.626993 16.018215 -4.161470 -10.697820 1.070747 0.000000 0.000000 0.000000 6.998850 -0.373145 2.507083 -2.294430 1.093050 -1.288508 -4.378271 2.470684 9.218231 9.363863 -2.965318 -24.467780 0.000000 0.000000 0.000000 -19.189682 -19.627156 8.270292 -51.231888 -22.364636 3.215533 -20.497479 -49.663057 11.436692 0.000000 0.000000 0.000000 21.969291 7.868242 3.460952 55.799424 9.396367 -1.703513 55.666894 55.200769 33.974713 0.000000 0.000000 0.000000 
0.125754 0.931009 0.050437 -2.488771 -1.100026 2.531600 5.034905 -0.634856 -12.006877 -4.699492 0.570975 5.637254 7.229004 15.877991 9.319438 0.000000 0.000000 0.000000 -6.775781 0.410143 -4.719521 0.844049 0.578773 19.059239 -4.296407 -11.243691 2.001278 0.000000 0.000000 0.000000 6.678581 -0.393508 2.825602 -2.660248 1.263081 -1.049255 -4.041941 2.797167 8.776351 9.522251 -3.043513 -24.216410 0.000000 0.000000 0.000000 -18.745509 -19.037795 7.814322 -50.651810 -22.641667 3.326972 -22.969068 -52.452549 13.352945 0.000000 0.000000 0.000000 21.957319 8.224526 3.742186 57.172835 9.761584 -1.498430 59.674696 55.280775 36.743297 0.000000 0.000000 0.000000 
0.138161 0.933636 0.057007 -2.948634 -1.060047 2.309649 4.442304 -0.635815 -11.007797 -4.577513 0.548190 5.372739 7.330144 15.983313 8.524985 0.000000 0.000000 0.000000 -6.318581 0.443974 -5.470480 1.422693 0.497693 21.539975 -4.719812 -12.242739 2.083267 0.000000 0.000000 0.000000 6.301700 -0.444230 3.553910 -2.901260 1.375326 -1.168370 -3.674819 2.842581 8.457313 9.597061 -3.060963 -24.264854 0.000000 0.000000 0.000000 -17.484568 -18.995303 7.674346 -50.265881 -22.996389 3.448666 -25.844382 -55.763944 15.878903 0.000000 0.000000 0.000000 22.063327 8.809383 4.086829 58.118249 10.888607 -0.905404 64.528495 55.059418 39.844292 0.000000 0.000000 0.000000 
0.147876 0.935548 0.062227 -3.336929 -1.193385 2.360071 4.341336 -0.626147 -10.696032 -4.636900 0.557993 5.197490 7.352466 15.991581 8.238865 0.000000 0.000000 0.000000 -5.547058 0.516307 -6.563398 1.903229 0.409205 23.175539 -4.779241 -12.285035 1.601583 0.000000 0.000000 0.000000 5.778292 -0.471136 4.101416 -3.136398 1.478946 -1.676460 -3.041508 3.003952 8.473381 9.471239 -2.940620 -24.595553 0.000000 0.000000 0.000000 -16.592297 -19.113921 7.676839 -50.627596 -23.772676 3.806443 -28.652156 -58.463363 18.439341 0.000000 0.000000 0.000000 21.663398 9.704232 4.590152 58.937858 12.685733 0.030585 69.730492 56.021781 44.348190 0.000000 0.000000 0.000000 
